<svg stroke="currentColor" fill="none" stroke-width="0" viewBox="0 0 512 512" height="200px" width="200px" xmlns="http://www.w3.org/2000/svg"><defs><linearGradient id="grad2" x1="0%" y1="0%" x2="100%" y2="100%"><stop offset="0%" style="stop-color:rgb(45, 200, 254);stop-opacity:1"/><stop offset="39.6%" style="stop-color:rgb(14, 163, 227);stop-opacity:1"/><stop offset="70.8%" style="stop-color:rgb(4, 108, 169);stop-opacity:1"/><stop offset="100%" style="stop-color:rgb(4, 62, 110);stop-opacity:1"/></linearGradient></defs><path fill="url(#grad2)" d="M256 8c137 0 248 111 248 248S393 504 256 504 8 393 8 256 119 8 256 8zM140 300h116v70.9c0 10.7 13 16.1 20.5 8.5l114.3-114.9c4.7-4.7 4.7-12.2 0-16.9l-114.3-115c-7.6-7.6-20.5-2.2-20.5 8.5V212H140c-6.6 0-12 5.4-12 12v64c0 6.6 5.4 12 12 12z"></path></svg>
