<svg stroke="currentColor" fill="currentColor" stroke-width="0" viewBox="0 0 512 512" width="28px" xmlns="http://www.w3.org/2000/svg"><defs><linearGradient id="grad" x1="0%" y1="0%" x2="100%" y2="100%"><stop offset="0%" style="stop-color:rgb(45, 200, 254);stop-opacity:1"/><stop offset="39.5987%" style="stop-color:rgb(14, 163, 227);stop-opacity:1"/><stop offset="70.8026%" style="stop-color:rgb(4, 108, 169);stop-opacity:1"/><stop offset="100%" style="stop-color:rgb(4, 62, 110);stop-opacity:1"/></linearGradient></defs><path d="M504 256c0 136.997-111.043 248-248 248S8 392.997 8 256C8 119.083 119.043 8 256 8s248 111.083 248 248zm-248 50c-25.405 0-46 20.595-46 46s20.595 46 46 46 46-20.595 46-46-20.595-46-46-46zm-43.673-165.346l7.418 136c.347 6.364 5.609 11.346 11.982 11.346h48.546c6.373 0 11.635-4.982 11.982-11.346l7.418-136c.375-6.874-5.098-12.654-11.982-12.654h-63.383c-6.884 0-12.356 5.78-11.981 12.654z" fill="url(#grad)"/></svg>
