<svg id="Layer_1" data-name="Layer 1" xmlns="http://www.w3.org/2000/svg" viewBox="0 0 256 256"><defs><style>.cls-1{fill:#ce1111;}.cls-2{fill:#0f41bc;}</style></defs><path class="cls-1" d="M56.09,86.91,50.2,72.69l-33.67-2.4c0,.47-.05.84-.05,1.21q0,16.34,0,32.66a1.82,1.82,0,0,0,.66,1.56,4,4,0,0,1,.16,5.91c-.24.25-.51.46-.81.72,0,1.08,0,2.19,0,3.29a3,3,0,0,0,.36,1.18c1.1,2.22,2.22,4.44,3.32,6.66.17.32.31.66.51,1.1H8c.13-.34.22-.63.34-.89,1.06-2.12,2.1-4.24,3.19-6.34a4.1,4.1,0,0,0,.55-2.29,5.64,5.64,0,0,1,0-.92,2.83,2.83,0,0,0-.92-2.51,3.84,3.84,0,0,1,.37-5.76,2.17,2.17,0,0,0,.87-1.94c0-11,0-21.93,0-32.89a2.42,2.42,0,0,1,.89-2c2.82-2.63,5.6-5.3,8.4-7.95q5.4-5.12,10.8-10.25C35,48.44,37.6,46,40.18,43.53L51.22,33l7.64-7.26L70,15.2c2.5-2.36,5-4.73,7.47-7.1q2.37-2.25,4.73-4.51a1.37,1.37,0,0,1,1-.45c2.75-.06,5.5-.15,8.24-.21l15.23-.33,8.48-.22,15.79-.45c3.47-.09,7-.16,10.42-.23l11.22-.25,8-.21L177.05.79a12.69,12.69,0,0,1,2.19.12c-8.08,9.58-16.3,19-24.53,28.51,1.63,3.92,3.27,7.88,5,12A115.16,115.16,0,0,0,56.09,86.91Z"/><path class="cls-2" d="M170.93,58.08C143.6,56.35,119.2,63.91,98.2,81.5a96.94,96.94,0,0,0-33.93,58.23c-4.75,25.74-.12,49.88,13.88,72s33.95,36.33,59.1,43.39c-3.13.73-20.45-3.7-28.88-7.35A100.35,100.35,0,0,1,70.51,91.91C98.9,57.61,140.53,50.36,170.93,58.08Z"/><path class="cls-1" d="M122.09,89.27c-.42.38-.85.76-1.26,1.15a85.45,85.45,0,0,0-14.62,17.82A73.57,73.57,0,0,0,98.13,127a63.56,63.56,0,0,0-2.33,14c-.13,3.08-.27,6.18-.12,9.26a78.38,78.38,0,0,0,4,21.16A88.19,88.19,0,0,0,116.61,201a85.65,85.65,0,0,0,14.12,13.19,77.54,77.54,0,0,0,31.28,14,70.37,70.37,0,0,0,15.46,1.36A75.54,75.54,0,0,0,198.7,226a92.17,92.17,0,0,0,14.63-6.18c.26-.14.54-.26.95-.44-16.38,14.73-45.5,24.77-75.74,15.22a80.22,80.22,0,0,1-16.66-145.5Z"/><path class="cls-2" d="M164.21,113.47H197c1.15,4.47,2.8,20.27,2.69,28.72-4.21.09-8.42,0-12.64,0s-8.47,0-12.71,0h-12.8A193.91,193.91,0,0,1,164.21,113.47Z"/><path class="cls-2" d="M199.75,152.12a189.07,189.07,0,0,1-2.61,28.57H164.32c-1.16-3.46-3.12-24.45-2.66-28.57Z"/><path class="cls-2" d="M195.12,103.7c-9.68,0-19.16,0-28.72-.06a6.21,6.21,0,0,1,.07-.79,74.21,74.21,0,0,1,5.63-15.06,24.48,24.48,0,0,1,4.31-6.16c2.89-2.86,5.79-2.84,8.64.1a24.65,24.65,0,0,1,3.67,5.1,62.69,62.69,0,0,1,5,12C194.16,100.36,194.59,101.9,195.12,103.7Z"/><path class="cls-2" d="M195,190.62a80.18,80.18,0,0,1-4.61,13.4,32.1,32.1,0,0,1-3.57,6.24,23.12,23.12,0,0,1-2.5,2.82,5,5,0,0,1-7.11.25,19.23,19.23,0,0,1-4.56-5.81,66.82,66.82,0,0,1-5.82-14.74c-.17-.59-.32-1.18-.46-1.77a1.54,1.54,0,0,1,0-.39Z"/><path class="cls-2" d="M206.89,113.46h11.29a95.44,95.44,0,0,1,5.71,28.7H209.58A193.29,193.29,0,0,0,206.89,113.46Z"/><path class="cls-2" d="M143.14,113.5h11.19c-.43,3.26-.88,6.4-1.25,9.56s-.69,6.28-.92,9.43-.34,6.38-.51,9.66H137.46A95,95,0,0,1,143.14,113.5Z"/><path class="cls-2" d="M223.88,152.22a95.16,95.16,0,0,1-5.67,28.46H207c.58-4.77,1.26-9.47,1.71-14.2s.66-9.49,1-14.26A136.47,136.47,0,0,1,223.88,152.22Z"/><path class="cls-2" d="M151.7,152.13a198.63,198.63,0,0,0,2.71,28.42,89.14,89.14,0,0,1-11.29.12,95.17,95.17,0,0,1-5.66-28.54Z"/><path class="cls-2" d="M248,142.16H233.75a109.23,109.23,0,0,0-5.13-28.65,8.77,8.77,0,0,1,.89-.11c2.9,0,5.8,0,8.7,0a1.41,1.41,0,0,1,1.44.83,67.08,67.08,0,0,1,7.7,22.35c.25,1.58.43,3.16.62,4.75A5.75,5.75,0,0,1,248,142.16Z"/><path class="cls-2" d="M233.74,152.13H248a67,67,0,0,1-8.73,28.55H228.63A108.78,108.78,0,0,0,233.74,152.13Z"/><path class="cls-2" d="M132.67,113.5A106.92,106.92,0,0,0,127.6,142a137.31,137.31,0,0,1-14.11.08,19.24,19.24,0,0,1,0-2,67,67,0,0,1,5.25-19.91c.9-2.06,2-4,3-6a1,1,0,0,1,1-.65Z"/><path class="cls-2" d="M113.45,152.12h14.12a107,107,0,0,0,5.12,28.56c-.45,0-.78.06-1.11.06-2.82,0-5.65,0-8.47,0a1.4,1.4,0,0,1-1.45-.8,66.78,66.78,0,0,1-7.26-20c-.41-2.2-.65-4.44-.94-6.66A9,9,0,0,1,113.45,152.12Z"/><path class="cls-2" d="M213.71,103.59h-8.53a114.32,114.32,0,0,0-5.54-17C205.61,91.14,210,96.93,213.71,103.59Z"/><path class="cls-2" d="M156.17,190.67a110.42,110.42,0,0,0,5.55,17,52.09,52.09,0,0,1-14-16.88A49.82,49.82,0,0,1,156.17,190.67Z"/><path class="cls-2" d="M205.15,190.61h8.33c-.64,3.37-9.5,14.32-13.69,16.94a.2.2,0,0,1-.08,0s-.07-.08-.06-.1A104.77,104.77,0,0,0,205.15,190.61Z"/><path class="cls-2" d="M156.09,103.55h-8.22c.8-3.6,9.79-14.63,13.78-16.92-1,2.8-2.12,5.54-3,8.34S157,100.59,156.09,103.55Z"/><path class="cls-2" d="M232.15,190.82a64.57,64.57,0,0,1-14.73,12.8c1.33-2.12,2.73-4.2,4-6.37s2.4-4.41,3.59-6.61C227.12,190.4,231.41,190.5,232.15,190.82Z"/><path class="cls-2" d="M129,190.66c.37,0,.54-.1.71-.1h5.84a1,1,0,0,1,1.09.61,76.56,76.56,0,0,0,7.1,12.12,2.65,2.65,0,0,1,.18.51A69.27,69.27,0,0,1,129,190.66Z"/><path class="cls-2" d="M217.4,90.63a63.36,63.36,0,0,1,14.77,12.79,2.73,2.73,0,0,1-.67.17c-1.94,0-3.89,0-5.83,0a1,1,0,0,1-1.06-.65,76.3,76.3,0,0,0-7-12C217.52,90.87,217.46,90.74,217.4,90.63Z"/><path class="cls-2" d="M143.86,90.5c-1.73,2.85-3.36,5.47-4.92,8.13-.76,1.31-1.44,2.68-2.08,4.06a1.28,1.28,0,0,1-1.36.91c-1.8,0-3.59,0-5.38,0-.26,0-.51,0-1-.08A67.18,67.18,0,0,1,143.86,90.5Z"/></svg>