<?xml version="1.0" encoding="utf-8"?>
<!-- Generator: Adobe Illustrator 25.2.0, SVG Export Plug-In . SVG Version: 6.00 Build 0)  -->
<svg version="1.1" id="Layer_1" xmlns="http://www.w3.org/2000/svg" xmlns:xlink="http://www.w3.org/1999/xlink" x="0px" y="0px"
	 viewBox="0 0 792 380" style="enable-background:new 0 0 792 380;" xml:space="preserve">
<style type="text/css">
	.st0{fill:url(#SVGID_1_);}
	.st1{fill:url(#SVGID_2_);}
	.st2{fill:url(#SVGID_3_);}
	.st3{fill:url(#SVGID_4_);}
	.st4{fill:url(#SVGID_5_);}
	.st5{fill:url(#SVGID_6_);}
	.st6{fill:url(#SVGID_7_);}
	.st7{fill:url(#SVGID_8_);}
	.st8{fill:#CC2027;}
	.st9{fill:url(#SVGID_9_);}
	.st10{fill:url(#SVGID_10_);}
	.st11{fill:url(#SVGID_11_);}
	.st12{fill:url(#SVGID_12_);}
	.st13{fill:url(#SVGID_13_);}
	.st14{fill:url(#SVGID_14_);}
	.st15{fill:url(#SVGID_15_);}
	.st16{fill:url(#SVGID_16_);}
	.st17{fill:url(#SVGID_17_);}
	.st18{fill:url(#SVGID_18_);}
	.st19{fill:url(#SVGID_19_);}
	.st20{fill:url(#SVGID_20_);}
	.st21{fill:url(#SVGID_21_);}
	.st22{fill:url(#SVGID_22_);}
	.st23{fill:url(#SVGID_23_);}
	.st24{fill:url(#SVGID_24_);}
	.st25{fill:url(#SVGID_25_);}
	.st26{fill:url(#SVGID_26_);}
	.st27{fill:url(#SVGID_27_);}
	.st28{fill:url(#SVGID_28_);}
	.st29{fill:url(#SVGID_29_);}
	.st30{fill:url(#SVGID_30_);}
	.st31{fill:url(#SVGID_31_);}
	.st32{fill:url(#SVGID_32_);}
	.st33{fill:url(#SVGID_33_);}
	.st34{fill:url(#SVGID_34_);}
	.st35{fill:url(#SVGID_35_);}
	.st36{fill:url(#SVGID_36_);}
	.st37{fill:#EC1C24;}
</style>
<g>
	
		<linearGradient id="SVGID_1_" gradientUnits="userSpaceOnUse" x1="656.8568" y1="587.446" x2="656.8568" y2="493.475" gradientTransform="matrix(1 0 0 1 -344.05 -327.5381)">
		<stop  offset="0" style="stop-color:#054F8A"/>
		<stop  offset="0.3569" style="stop-color:#0780C1"/>
		<stop  offset="0.6271" style="stop-color:#0CA1D7"/>
		<stop  offset="1" style="stop-color:#39BFEF"/>
	</linearGradient>
	<path class="st0" d="M331.42,212.97L331.42,212.97c0.01-9.48,0.01-18.98,0-28.46c0-1.09-0.04-2.19-0.2-3.26
		c-1.06-7.03-4.94-11.81-11.63-14.21c-2.84-1.01-5.78-1.27-8.78-1c-4.37,0.39-8.28,1.89-11.46,4.97c-3.48,3.37-5.12,7.62-5.14,12.38
		c-0.06,19.24-0.04,38.48-0.02,57.72c0,1.24,0.05,2.49,0.23,3.71c0.83,5.69,3.67,10.06,8.78,12.77c4.65,2.46,9.61,2.86,14.68,1.68
		c8.13-1.89,13.47-8.41,13.53-17.05C331.48,232.48,331.42,222.73,331.42,212.97z M320.93,212.99h-0.04c0,9.18,0.01,18.37-0.02,27.55
		c0,1.15-0.04,2.34-0.29,3.47c-0.7,3.15-3.08,5.09-6.4,5.43c-1.29,0.13-2.64,0.04-3.91-0.23c-3.08-0.63-5.21-3.03-5.51-6.58
		c-0.02-0.19-0.01-0.37-0.01-0.56l0-58.26c0-3.58,2.02-6.27,5.36-7.19c1.97-0.56,3.94-0.5,5.88,0.14c1.12,0.37,2.1,0.98,2.92,1.85
		c1.22,1.3,1.82,2.85,1.92,4.58c0.08,1.58,0.09,3.16,0.1,4.73C320.94,196.28,320.93,204.63,320.93,212.99z"/>
	
		<linearGradient id="SVGID_2_" gradientUnits="userSpaceOnUse" x1="792.4145" y1="585.749" x2="792.4145" y2="514.0952" gradientTransform="matrix(1 0 0 1 -344.05 -327.5381)">
		<stop  offset="0" style="stop-color:#054F8A"/>
		<stop  offset="0.3569" style="stop-color:#0780C1"/>
		<stop  offset="0.6271" style="stop-color:#0CA1D7"/>
		<stop  offset="1" style="stop-color:#39BFEF"/>
	</linearGradient>
	<path class="st1" d="M466.44,258.21c-3.5,0-6.83,0-10.32,0c0-0.53,0-1.01,0-1.48c0-17.02,0.01-34.04-0.03-51.05
		c0-1.37-0.21-2.79-0.57-4.11c-0.86-3.1-3.13-4.67-6.33-4.78c-3.22-0.11-5.84,1.18-8.19,3.21c-0.34,0.3-0.49,0.63-0.49,1.08
		c0.01,0.79-0.02,1.58-0.02,2.37c0,17.17,0,34.34,0.01,51.5c0,1.05,0,2.09,0,3.23c-3.41,0-6.78,0-10.23,0c0-23.51,0-47.02,0-70.6
		c2.3,0,4.57,0,6.97,0c0.5,1.22,1.03,2.49,1.61,3.89c0.35-0.26,0.63-0.48,0.91-0.7c4.31-3.34,9.17-4.85,14.59-3.97
		c5.68,0.93,9.23,4.42,11.04,9.77c0.88,2.6,1.04,5.3,1.04,8.02c-0.01,16.9,0,33.81,0,50.71
		C466.44,256.25,466.44,257.18,466.44,258.21z"/>
	
		<linearGradient id="SVGID_3_" gradientUnits="userSpaceOnUse" x1="703.7778" y1="585.733" x2="703.7778" y2="514.1104" gradientTransform="matrix(1 0 0 1 -344.05 -327.5381)">
		<stop  offset="0" style="stop-color:#054F8A"/>
		<stop  offset="0.3569" style="stop-color:#0780C1"/>
		<stop  offset="0.6271" style="stop-color:#0CA1D7"/>
		<stop  offset="1" style="stop-color:#39BFEF"/>
	</linearGradient>
	<path class="st2" d="M377.82,258.2c-3.45,0-6.78,0-10.28,0c0-0.5,0-0.98,0-1.45c0-16.79,0-33.59,0-50.38c0-1.62-0.13-3.23-0.6-4.79
		c-0.92-3.05-3.17-4.68-6.34-4.79c-3.31-0.12-5.99,1.19-8.34,3.36c-0.22,0.2-0.34,0.56-0.39,0.86c-0.07,0.36-0.02,0.75-0.02,1.13
		c0,18.19,0,36.37,0,54.56c0,0.48,0,0.96,0,1.5c-3.46,0-6.79,0-10.2,0c0-23.54,0-47.04,0-70.62c2.31,0,4.59,0,6.95,0
		c0.52,1.26,1.05,2.53,1.63,3.92c0.4-0.3,0.71-0.54,1.02-0.78c3.94-3.06,8.4-4.54,13.38-4.05c6.05,0.59,9.99,3.95,12.03,9.62
		c0.97,2.69,1.16,5.5,1.17,8.34c0,16.72,0,33.44,0,50.15C377.82,255.89,377.82,257.01,377.82,258.2z"/>
	
		<linearGradient id="SVGID_4_" gradientUnits="userSpaceOnUse" x1="837.6322" y1="586.7294" x2="837.6322" y2="514.0666" gradientTransform="matrix(1 0 0 1 -344.05 -327.5381)">
		<stop  offset="0" style="stop-color:#054F8A"/>
		<stop  offset="0.3569" style="stop-color:#0780C1"/>
		<stop  offset="0.6271" style="stop-color:#0CA1D7"/>
		<stop  offset="1" style="stop-color:#39BFEF"/>
	</linearGradient>
	<path class="st3" d="M510.45,234.83c-0.27,0.05-0.56,0.11-0.85,0.18c-2.77,0.71-5.53,1.42-8.43,2.17v1.23
		c0,1.32,0.03,2.64-0.01,3.96c-0.1,3.28-2.07,5.83-5.18,6.56c-1.01,0.24-2.1,0.31-3.14,0.25c-3.56-0.25-5.98-2.43-6.41-5.98
		c-0.24-1.93-0.09-3.91-0.19-5.86c-0.04-0.93,0.26-1.49,1.08-1.99c4.83-3.01,9.43-6.35,13.7-10.12c2.49-2.2,4.78-4.59,6.49-7.47
		c3.69-6.22,4.2-12.89,2.32-19.72c-1.45-5.31-4.94-8.88-10.22-10.56c-3.14-1.01-6.36-1.17-9.6-0.62c-8.15,1.4-13.56,7.6-13.65,15.96
		c-0.17,13.13-0.07,26.28-0.03,39.42c0.01,1.6,0.24,3.23,0.62,4.79c1.06,4.43,3.6,7.81,7.62,10.02c3.62,2,7.52,2.49,11.58,1.97
		c7.35-0.94,12.73-5.96,14.09-13.24c0.67-3.54,0.32-7.13,0.34-10.7C510.59,235,510.52,234.93,510.45,234.83z M486.32,204.06
		c0.01-1.22,0.25-2.48,0.63-3.63c0.89-2.67,2.9-4.07,5.66-4.28c3.95-0.31,6.73,1.62,7.65,5.49c1.34,5.65,0.39,10.87-3.32,15.48
		c-2.49,3.08-5.62,5.4-8.83,7.65c-0.52,0.36-1.06,0.7-1.76,1.17c-0.03-0.53-0.05-0.82-0.05-1.11
		C486.3,217.91,486.27,210.98,486.32,204.06z"/>
	
		<linearGradient id="SVGID_5_" gradientUnits="userSpaceOnUse" x1="971.0565" y1="602.4434" x2="971.0565" y2="525.6196" gradientTransform="matrix(1 0 0 1 -344.05 -327.5381)">
		<stop  offset="0" style="stop-color:#054F8A"/>
		<stop  offset="0.3569" style="stop-color:#0780C1"/>
		<stop  offset="0.6271" style="stop-color:#0CA1D7"/>
		<stop  offset="1" style="stop-color:#39BFEF"/>
	</linearGradient>
	<path class="st4" d="M645.1,200.48c0.15-0.24,0.26-0.51,0.4-0.8c-0.19-0.04-0.3-0.1-0.41-0.09c-3.15,0.17-6.29,0.36-9.45,0.51
		c-0.35,0.02-0.77-0.04-1.08-0.2c-3.44-1.84-7.08-2.18-10.84-1.48c-6.71,1.24-11.25,6.47-11.36,13.34
		c-0.1,5.34-0.05,10.69-0.04,16.03c0,1.13,0.06,2.27,0.25,3.37c0.59,3.6,2.27,6.58,5.3,8.72c0.19,0.14,0.39,0.31,0.59,0.47
		c-4.8,3.62-4.87,8.44-2.89,12.3c-0.1,0.1-0.15,0.16-0.21,0.19c-0.16,0.1-0.34,0.18-0.5,0.26c-3.61,1.79-5.69,4.65-6.23,8.67
		c-0.82,6.13,2.77,12.53,10.53,13c4.2,0.26,8.44,0.05,12.65,0.07c0.48,0.01,0.76-0.17,0.95-0.61c0.87-1.96,1.77-3.9,2.65-5.85
		c0.1-0.22,0.11-0.48,0.19-0.82h-1.68c-3.91,0-7.83,0.01-11.75-0.01c-0.63-0.01-1.28-0.09-1.88-0.27c-1.77-0.53-2.86-2.05-2.94-3.99
		c-0.08-1.99,0.79-3.56,2.57-4.2c1-0.36,2.12-0.57,3.18-0.58c5.16-0.06,10.31-0.03,15.48-0.03h1.32c1.04-2.44,2.33-4.75,3.23-7.41
		h-1.76c-4.89,0-9.79,0.01-14.68-0.02c-0.78,0-1.58-0.07-2.34-0.23c-1.95-0.41-2.95-1.69-3.01-3.68c-0.04-1.67,0.56-3.08,1.71-4.27
		c0.37-0.38,0.71-0.54,1.28-0.47c2.13,0.27,4.28,0.29,6.39-0.2c5.52-1.3,9.25-4.54,10.64-10.14c0.37-1.52,0.48-3.12,0.51-4.69
		c0.06-4.67,0.04-9.33,0.01-14.01c-0.02-1.88-0.17-3.75-0.78-5.55c-0.21-0.6-0.07-1.06,0.26-1.57
		C642.64,204.35,643.87,202.41,645.1,200.48z M633.72,227.59c-0.01,0.82-0.07,1.67-0.27,2.46c-0.67,2.72-2.62,4.26-5.51,4.5
		c-0.93,0.08-1.88-0.05-2.79-0.19c-2.46-0.36-4.5-2.48-4.6-5.49c-0.1-2.86-0.02-5.71-0.02-8.57c-0.01,0-0.01,0-0.02,0
		c0-2.67-0.04-5.34,0.01-8.01c0.1-4.19,2.71-6.21,6.72-6.21c0.63,0,1.27,0.12,1.89,0.26c2.37,0.51,4.06,2.31,4.42,4.7
		c0.11,0.78,0.18,1.57,0.18,2.35C633.74,218.12,633.75,222.86,633.72,227.59z"/>
	
		<linearGradient id="SVGID_6_" gradientUnits="userSpaceOnUse" x1="1080.8177" y1="585.8187" x2="1080.8177" y2="506.6342" gradientTransform="matrix(1 0 0 1 -344.05 -327.5381)">
		<stop  offset="0" style="stop-color:#054F8A"/>
		<stop  offset="0.3569" style="stop-color:#0780C1"/>
		<stop  offset="0.6271" style="stop-color:#0CA1D7"/>
		<stop  offset="1" style="stop-color:#39BFEF"/>
	</linearGradient>
	<path class="st5" d="M751.9,258.22c-2.88,0-5.62,0-8.5,0c-0.02-0.46-0.06-0.89-0.06-1.32c0-8.02,0-16.04,0-24.05
		c0-5.95,0.02-11.9-0.02-17.84c-0.01-1.23-0.15-2.48-0.37-3.69c-0.55-3.04-2.82-4.99-6.62-4.63c-1.98,0.19-3.66,1.02-5.21,2.23
		c-0.71,0.55-1.02,1.14-1.02,2.08c0.03,15.13,0.02,30.27,0.02,45.4c0,0.56,0,1.12,0,1.66c-0.84,0.25-6.9,0.31-8.54,0.1
		c0-25.61,0-51.22,0-76.98c2.75-0.72,5.56-1.44,8.54-2.07c0,7.4,0,14.64,0,22.07c0.47-0.29,0.77-0.47,1.08-0.66
		c3.15-1.97,6.59-2.78,10.25-2.26c4.68,0.66,7.73,3.41,9.41,7.77c0.82,2.14,1.09,4.38,1.09,6.64c0.03,14.83,0.02,29.66,0.02,44.5
		C751.96,257.47,751.92,257.8,751.9,258.22z"/>
	
		<linearGradient id="SVGID_7_" gradientUnits="userSpaceOnUse" x1="932.7675" y1="585.8355" x2="932.7675" y2="525.6334" gradientTransform="matrix(1 0 0 1 -344.05 -327.5381)">
		<stop  offset="0" style="stop-color:#054F8A"/>
		<stop  offset="0.3569" style="stop-color:#0780C1"/>
		<stop  offset="0.6271" style="stop-color:#0CA1D7"/>
		<stop  offset="1" style="stop-color:#39BFEF"/>
	</linearGradient>
	<path class="st6" d="M573.6,198.89c1.95,0,3.83,0,5.81,0c0.44,1.05,0.89,2.11,1.37,3.28c0.31-0.23,0.58-0.4,0.84-0.6
		c3.29-2.55,7.01-3.73,11.17-3.42c4.79,0.36,8.64,3.46,10.21,8.17c0.61,1.84,0.93,3.73,0.93,5.66c0.02,15.14,0.01,30.28,0.01,45.41
		c0,0.22-0.02,0.45-0.03,0.67c-0.78,0.25-6.45,0.34-8.54,0.11c-0.02-0.45-0.06-0.92-0.06-1.39c0-13.86,0.01-27.72-0.02-41.57
		c0-1.31-0.11-2.64-0.37-3.92c-0.68-3.4-3.01-4.7-6.11-4.62c-2.37,0.06-4.34,1.09-6.11,2.6c-0.37,0.32-0.58,0.66-0.56,1.16
		c0.02,0.75-0.01,1.51,0,2.26c0.01,14.87,0.01,29.75,0.01,44.62c0,0.29-0.05,0.58-0.07,0.91c-2.85,0-5.63,0-8.4,0
		c-0.03-0.03-0.06-0.06-0.09-0.09c-0.02-0.03-0.06-0.05-0.07-0.09c-0.02-0.15-0.05-0.3-0.05-0.45c0-19.43,0-38.86,0.01-58.29
		C573.5,199.2,573.55,199.1,573.6,198.89z"/>
	
		<linearGradient id="SVGID_8_" gradientUnits="userSpaceOnUse" x1="897.705" y1="585.726" x2="897.705" y2="509.6549" gradientTransform="matrix(1 0 0 1 -344.05 -327.5381)">
		<stop  offset="0" style="stop-color:#054F8A"/>
		<stop  offset="0.3569" style="stop-color:#0780C1"/>
		<stop  offset="0.6271" style="stop-color:#0CA1D7"/>
		<stop  offset="1" style="stop-color:#39BFEF"/>
	</linearGradient>
	<path class="st7" d="M566.19,182.28c0,2.81,0,5.55,0,8.44c-0.45,0.02-0.88,0.06-1.31,0.06c-4.52,0-9.04,0-13.56,0
		c-0.4,0-0.81,0-1.28,0c0,8.01,0,15.86,0,23.89c3.75,0.07,7.52-0.02,11.36,0.05c0,2.91,0,5.71,0,8.66c-3.78,0-7.53,0-11.35,0
		c0,8.79,0,17.43,0,26.2c5.33,0,10.66,0,15.95,0c0.26,0.9,0.33,6.9,0.13,8.61c-8.32,0-16.65,0-25.06,0c0-25.32,0-50.6,0-75.88
		C541.93,182.08,564.78,182.04,566.19,182.28z"/>
	<path class="st8" d="M293.35,271.48c-0.27-1.02-0.13-2.05-0.11-3.16c103.87,0,207.64,0,311.56,0c0.12,1,0.03,2.03,0.05,3.03
		c-0.07,0.06-0.1,0.09-0.12,0.12c-0.03,0.02-0.05,0.06-0.08,0.07c-0.15,0.02-0.3,0.05-0.45,0.05c-103.49,0-206.98,0-310.47-0.01
		C293.61,271.58,293.51,271.52,293.35,271.48z"/>
	
		<linearGradient id="SVGID_9_" gradientUnits="userSpaceOnUse" x1="737.3821" y1="585.8057" x2="737.3821" y2="491.4002" gradientTransform="matrix(1 0 0 1 -344.05 -327.5381)">
		<stop  offset="0" style="stop-color:#054F8A"/>
		<stop  offset="0.3569" style="stop-color:#0780C1"/>
		<stop  offset="0.6271" style="stop-color:#0CA1D7"/>
		<stop  offset="1" style="stop-color:#39BFEF"/>
	</linearGradient>
	<path class="st9" d="M388.32,166.37c3.34-0.82,6.72-1.65,10.18-2.5c0,31.5,0,62.85,0,94.35c-3.37,0.11-6.74,0.02-10.09,0.05
		C388.15,257.44,388.07,167.99,388.32,166.37z"/>
	
		<linearGradient id="SVGID_10_" gradientUnits="userSpaceOnUse" x1="1043.2784" y1="586.6338" x2="1043.2784" y2="525.5417" gradientTransform="matrix(1 0 0 1 -344.05 -327.5381)">
		<stop  offset="0" style="stop-color:#054F8A"/>
		<stop  offset="0.3569" style="stop-color:#0780C1"/>
		<stop  offset="0.6271" style="stop-color:#0CA1D7"/>
		<stop  offset="1" style="stop-color:#39BFEF"/>
	</linearGradient>
	<path class="st10" d="M692.07,240.62c0,1.47,0,2.82,0,4.17c0,2.94,1.42,4.83,4.27,5.61c1.96,0.54,3.94,0.55,5.9-0.01
		c1.75-0.49,2.99-1.59,3.55-3.33c0.79-2.46,0.69-4.89-0.57-7.2c-0.98-1.81-2.31-3.35-3.77-4.76c-3.02-2.93-6.13-5.78-9.19-8.67
		c-2.98-2.82-5.57-5.92-6.83-9.93c-0.94-3.01-1.05-6.06-0.24-9.11c0.87-3.26,2.76-5.8,5.77-7.3c5.08-2.53,10.37-2.71,15.64-0.72
		c4.16,1.57,6.37,4.86,7.16,9.16c0.13,0.7,0.2,1.42,0.22,2.13c0.03,1.38,0.01,2.77,0.01,4.24c-2.63,0-5.17,0-7.86,0
		c0-0.98,0.02-1.94,0-2.91c-0.03-1.64-0.49-3.11-1.75-4.25c-0.87-0.79-1.93-1.21-3.06-1.31c-1.23-0.11-2.5-0.17-3.7,0.05
		c-3.44,0.63-4.75,2.95-4.6,6.18c0.07,1.46,0.59,2.81,1.45,3.98c0.71,0.97,1.45,1.94,2.31,2.77c3.14,3.04,6.33,6.01,9.5,9.01
		c2.06,1.95,3.98,4.01,5.44,6.46c1.89,3.19,2.77,6.65,2.52,10.36c-0.11,1.53-0.28,3.08-0.68,4.55c-1.14,4.3-3.94,7.15-8.18,8.41
		c-4.48,1.33-9,1.28-13.38-0.48c-4.35-1.74-6.84-5.04-7.55-9.64c-0.23-1.48-0.2-2.99-0.23-4.5c-0.04-1.62-0.01-3.23-0.01-5.02
		C686.87,239.25,689.43,239.92,692.07,240.62z"/>
	
		<linearGradient id="SVGID_11_" gradientUnits="userSpaceOnUse" x1="758.4296" y1="585.8472" x2="758.4296" y2="515.0925" gradientTransform="matrix(1 0 0 1 -344.05 -327.5381)">
		<stop  offset="0" style="stop-color:#054F8A"/>
		<stop  offset="0.3569" style="stop-color:#0780C1"/>
		<stop  offset="0.6271" style="stop-color:#0CA1D7"/>
		<stop  offset="1" style="stop-color:#39BFEF"/>
	</linearGradient>
	<path class="st11" d="M409.28,187.55c3.39,0,6.73,0,10.06,0c0.26,0.86,0.39,67.8,0.14,70.52c-0.8,0.24-7.83,0.32-10.1,0.13
		C409.14,257.38,409.03,190.41,409.28,187.55z"/>
	
		<linearGradient id="SVGID_12_" gradientUnits="userSpaceOnUse" x1="999.1571" y1="585.727" x2="999.1571" y2="506.5993" gradientTransform="matrix(1 0 0 1 -344.05 -327.5381)">
		<stop  offset="0" style="stop-color:#054F8A"/>
		<stop  offset="0.3569" style="stop-color:#0780C1"/>
		<stop  offset="0.6271" style="stop-color:#0CA1D7"/>
		<stop  offset="1" style="stop-color:#39BFEF"/>
	</linearGradient>
	<path class="st12" d="M659.36,258.19c-2.82,0-5.62,0-8.51,0c0-25.63,0-51.24,0-77.03c2.74-0.68,5.56-1.37,8.51-2.1
		C659.36,205.54,659.36,231.83,659.36,258.19z"/>
	
		<linearGradient id="SVGID_13_" gradientUnits="userSpaceOnUse" x1="1016.7552" y1="585.7319" x2="1016.7552" y2="526.4793" gradientTransform="matrix(1 0 0 1 -344.05 -327.5381)">
		<stop  offset="0" style="stop-color:#054F8A"/>
		<stop  offset="0.3569" style="stop-color:#0780C1"/>
		<stop  offset="0.6271" style="stop-color:#0CA1D7"/>
		<stop  offset="1" style="stop-color:#39BFEF"/>
	</linearGradient>
	<path class="st13" d="M668.53,198.94c2.76,0,5.52,0,8.29,0c0.25,0.8,0.31,57.91,0.06,59.25c-2.76,0-5.53,0-8.3,0
		C668.35,257.39,668.29,200.32,668.53,198.94z"/>
	<path class="st8" d="M323.51,107.63h-4.77c-2.27,16.97-4.54,33.91-6.82,50.93h4.65c0.3-2.42,0.61-4.82,0.91-7.25h7.47
		c0.32,2.43,0.63,4.8,0.93,7.2h4.65C328.18,141.49,325.84,124.56,323.51,107.63z M318.09,146.14c0.99-8.13,1.97-16.19,2.95-24.27
		c0.07-0.02,0.15-0.03,0.22-0.04c1.01,8.08,2.03,16.16,3.05,24.31H318.09z"/>
	<path class="st8" d="M349.13,118.44c-1.51,0-2.89,0-4.33,0c-0.08-0.89-0.11-1.75-0.24-2.59c-0.08-0.55-0.24-1.11-0.47-1.61
		c-0.52-1.16-1.44-1.83-2.72-1.89c-1.27-0.07-2.26,0.49-2.93,1.57c-0.61,0.98-0.85,2.08-0.91,3.22c-0.11,1.92,0.21,3.77,1.05,5.49
		c0.86,1.75,1.85,3.44,2.81,5.14c1.96,3.47,4.05,6.87,5.9,10.4c2.56,4.87,2.59,10.04,1.32,15.28c-0.1,0.4-0.25,0.79-0.41,1.17
		c-1.11,2.77-3.04,4.58-6.09,4.86c-3.07,0.29-5.63-0.77-7.48-3.3c-1.06-1.46-1.68-3.12-1.82-4.92c-0.11-1.41-0.02-2.84-0.02-4.37
		c1.47,0.26,2.78,0.89,4.25,1.26c0.03,0.41,0.01,0.78,0.08,1.14c0.14,0.81,0.21,1.66,0.5,2.41c0.58,1.51,1.91,2.32,3.44,2.27
		c1.51-0.04,2.62-0.87,3.19-2.44c0.63-1.74,0.65-3.54,0.42-5.35c-0.3-2.31-1.12-4.45-2.29-6.44c-1.16-1.98-2.37-3.93-3.57-5.89
		c-1.77-2.89-3.46-5.83-4.54-9.06c-1.2-3.6-1.64-7.26-0.79-11c0.32-1.45,0.86-2.8,1.74-4.01c3.31-4.56,10.06-4.07,12.64,0.93
		c0.92,1.78,1.25,3.69,1.27,5.67C349.14,117.05,349.13,117.72,349.13,118.44z"/>
	<path class="st8" d="M752.44,268.31c0,1.08,0,2.09,0,3.09c-0.81,0.23-110.78,0.3-112.3,0.06c0-1.02,0-2.05,0-3.15
		C677.55,268.31,714.92,268.31,752.44,268.31z"/>
	<path class="st8" d="M300.96,135.3c0,5.84,0,11.55,0,17.43c2.81,0.07,5.61,0,8.49,0.04c0,1.94,0,3.8,0,5.67
		c-0.79,0.22-11.15,0.3-13.13,0.1c-0.26-0.78-0.33-49.45-0.07-50.88c4.37,0,8.75,0,13.21,0c0,1.9,0,3.76,0,5.76
		c-2.81,0-5.61,0-8.47,0c0,5.36,0,10.57,0,15.92c0.99,0.13,1.99,0.05,2.99,0.06c0.97,0.01,1.94,0,2.98,0c0,1.95,0,3.78,0,5.73
		C305.01,135.37,303.03,135.1,300.96,135.3z"/>
	<path class="st8" d="M359.1,158.62c0-0.57,0-1.01,0-1.46c0-6.96-0.01-13.93,0.01-20.89c0-1.07-0.16-2.08-0.45-3.11
		c-2.29-8.1-4.55-16.21-6.82-24.32c-0.1-0.36-0.17-0.72-0.28-1.17c1.62,0,3.17,0,4.83,0c1.69,6.37,3.37,12.76,5.06,19.14
		c0.08,0.01,0.15,0.01,0.23,0.02c1.72-6.37,3.44-12.74,5.17-19.17c1.54,0,3.03,0,4.61,0c-0.11,0.48-0.2,0.91-0.32,1.34
		c-2.29,8.18-4.6,16.36-6.88,24.54c-0.21,0.75-0.3,1.55-0.31,2.33c-0.02,7.11-0.01,14.23-0.01,21.34c0,0.41,0,0.82,0,1.36
		c-0.84,0.02-1.62,0.03-2.39,0.04C360.82,158.62,360.07,158.62,359.1,158.62z"/>
	<path class="st8" d="M688.31,283.66c0-0.45-0.02-0.91-0.08-1.35c-0.32-2.26-1.56-3.58-3.8-4.01c-0.51-0.11-1.04-0.11-1.56-0.11
		c-1.58-0.01-3.15,0-4.78,0v23.38c0.11,0.04,0.24,0.14,0.37,0.14c1.91,0.01,3.84,0.11,5.75-0.02c1.85-0.12,3.18-1.15,3.74-2.96
		c0.24-0.78,0.34-1.61,0.35-2.43C688.34,292.08,688.32,287.86,688.31,283.66z M685.25,296.32c0,0.3,0,0.6-0.06,0.9
		c-0.21,1.11-0.78,1.65-1.9,1.73c-0.67,0.05-1.35,0.01-2,0.01c-0.26-0.84-0.35-15.67-0.12-17.91c0.95-0.25,1.84-0.1,2.71,0.09
		c0.59,0.12,1.01,0.53,1.17,1.11c0.12,0.47,0.19,0.96,0.19,1.44C685.26,287.89,685.26,292.1,685.25,296.32z"/>
	<path class="st8" d="M620.12,278.24c1.04,0,1.97,0,3.04,0c0,0.46,0,0.86,0,1.26c0,5.83,0,11.67,0.01,17.5
		c0,0.41,0.01,0.84,0.14,1.22c0.29,0.81,1.04,1.16,2.13,1.12c1.01-0.04,1.67-0.45,1.89-1.29c0.13-0.5,0.16-1.04,0.16-1.56
		c0.01-5.65,0.01-11.29,0.01-16.94c0-0.41,0-0.81,0-1.29c0.99,0,1.87,0,2.86,0c0.03,0.25,0.11,0.53,0.11,0.81
		c0.01,6.17,0.02,12.35,0,18.52c-0.01,1.92-0.95,3.28-2.69,4.08c-2.23,1.02-5.02,0.55-6.58-1.1c-0.73-0.77-1.15-1.7-1.15-2.75
		c-0.02-6.36-0.01-12.72,0-19.08C620.04,278.6,620.08,278.45,620.12,278.24z"/>
	<path class="st8" d="M326.27,299.41c-0.41,0-0.84-0.04-1.21-0.19c-0.62-0.23-0.8-0.8-0.61-1.51c0.18-0.58,0.5-0.79,1.17-0.78
		c0.52,0.01,1.06,0.03,1.57-0.05c1.99-0.31,3.71-1.77,3.79-3.49c0.11-2.28,0.05-4.58-0.03-6.88c-0.02-0.49,0.04-0.86,0.31-1.24
		c0.36-0.51,0.71-1.03,1.13-1.66c-0.32-0.02-0.46-0.03-0.6-0.03c-1.47-0.02-2.91,0.08-4.42-0.33c-2.82-0.74-6.37,0.74-6.18,4.96
		c0.05,1.05,0.05,2.11,0,3.16c-0.08,1.88,0.26,3.59,1.88,4.77c-1.31,1.62-1.36,1.82-0.93,3.82c-0.17,0.11-0.35,0.21-0.54,0.33
		c-1.28,0.89-1.84,2.21-1.59,3.59c0.31,1.65,1.36,2.68,2.92,2.87c1.66,0.2,3.36,0.04,5.08,0.04c0.34-0.71,0.68-1.4,1.1-2.27
		c-1.38,0-2.57,0-3.76-0.01c-0.38,0-0.76,0-1.12-0.08c-0.82-0.17-1.23-0.7-1.18-1.4c0.05-0.62,0.56-1.12,1.32-1.16
		c0.98-0.05,1.96-0.02,2.94-0.03h3.13c0.4-0.82,0.74-1.56,1.16-2.44h-1.16C329.06,299.42,327.67,299.44,326.27,299.41z
		 M324.06,287.75c0.03-1.35,0.8-2.07,2.12-2.07c1.31,0,2.06,0.74,2.12,2.11c0.02,0.75,0,1.5,0,2.25c0,0.75,0.02,1.5-0.01,2.25
		c-0.04,1.3-0.88,2.11-2.13,2.09c-1.3-0.02-2.07-0.78-2.11-2.12C324.03,290.76,324.03,289.25,324.06,287.75z"/>
	<path class="st8" d="M523.85,282.43c-0.3-2.88-2.07-4.25-5-4.25c-1.2-0.01-2.41,0-3.61,0h-1.57v23.45h3.05v-9.18h2.56
		c2.44-0.02,4.17-1.3,4.47-3.74C524,286.65,524.07,284.51,523.85,282.43z M520.81,287.89c-0.03,1.02-0.76,1.72-1.82,1.8
		c-0.71,0.05-1.42,0.01-2.24,0.01v-8.63c1-0.29,1.97-0.18,2.89,0.11c0.76,0.22,1.15,0.87,1.16,1.64
		C520.85,284.51,520.86,286.2,520.81,287.89z"/>
	<path class="st8" d="M398.07,282.62c-0.19-2.79-2.04-4.42-4.85-4.43c-1.46-0.01-2.94-0.01-4.4,0c-0.29,0-0.57,0.05-0.85,0.08
		c-0.22,1.81-0.13,22.58,0.09,23.38h2.88l0-9.19c0.92,0,1.63-0.03,2.34,0c2.35,0.11,4.54-1.23,4.77-4.33
		C398.2,286.3,398.19,284.44,398.07,282.62z M395.1,287.19c-0.04,1.83-0.73,2.49-2.55,2.51h-1.57v-8.62
		c1.02-0.33,2.03-0.19,2.96,0.15c0.39,0.15,0.72,0.63,0.93,1.04c0.19,0.34,0.2,0.79,0.21,1.2
		C395.12,284.72,395.13,285.95,395.1,287.19z"/>
	
		<linearGradient id="SVGID_14_" gradientUnits="userSpaceOnUse" x1="758.3496" y1="505.1537" x2="758.3496" y2="492.4525" gradientTransform="matrix(1 0 0 1 -344.05 -327.5381)">
		<stop  offset="0" style="stop-color:#054F8A"/>
		<stop  offset="0.3569" style="stop-color:#0780C1"/>
		<stop  offset="0.6271" style="stop-color:#0CA1D7"/>
		<stop  offset="1" style="stop-color:#39BFEF"/>
	</linearGradient>
	<path class="st14" d="M414.28,177.61c-3.16,0.09-5.64-1.82-5.97-5.82c-0.09-1.06,0.03-2.1,0.37-3.11c0.73-2.17,2.24-3.42,4.5-3.7
		c0.74-0.09,1.51-0.08,2.24,0.02c2.36,0.29,4.04,1.84,4.63,4.15c0.31,1.19,0.34,2.39,0.13,3.57
		C419.64,175.85,417.5,177.6,414.28,177.61z"/>
	<path class="st8" d="M662.02,287.68c-0.01-2.22-1.21-3.75-3.35-4.37c-1.2-0.34-2.39-0.29-3.55,0.1c-1.8,0.61-2.96,2.12-2.98,3.97
		c-0.04,3.46-0.04,6.92,0,10.38c0.03,1.48,0.71,2.65,1.98,3.47c1.04,0.67,2.18,0.75,3.36,0.72c2.71-0.06,4.53-1.88,4.54-4.57
		c0.01-1.61,0.01-3.23,0.01-4.85C662.03,290.91,662.03,289.29,662.02,287.68z M659.05,292.59c0,1.54,0.01,3.08,0,4.63
		c-0.02,1.33-0.64,1.96-1.91,1.98c-1.33,0.02-2.09-0.63-2.11-1.95c-0.03-3.13-0.04-6.25,0-9.37c0.02-1.67,1.84-2.59,3.25-1.68
		c0.56,0.35,0.78,0.89,0.77,1.54C659.04,289.35,659.05,290.98,659.05,292.59z"/>
	<path class="st8" d="M304.88,283.35c0.66,0,1.25,0,1.89,0c0.17,0.27,0.34,0.55,0.53,0.85c0.12-0.05,0.22-0.08,0.31-0.13
		c0.84-0.53,1.74-0.87,2.74-0.96c2.59-0.23,4.56,1.49,4.58,4.11c0.03,3.76,0.01,7.53,0.01,11.29c0,1.01,0,2.02,0,3.09
		c-0.98,0.25-1.9,0.09-2.98,0.12c0-0.48,0-0.88,0-1.28c0-3.84,0-7.68,0-11.52c0-0.23,0-0.45,0-0.68c-0.04-2.09-1.52-2.95-3.38-1.99
		c-0.55,0.29-0.82,0.64-0.81,1.32c0.04,3.2,0.02,6.4,0.02,9.6c0,1.46,0,2.92,0,4.47c-1,0-1.92,0-2.9,0
		C304.88,295.57,304.88,289.53,304.88,283.35z"/>
	<path class="st8" d="M752.94,292.57c0-1.76-0.01-3.53,0-5.3c0.01-1.08-0.39-1.99-1.15-2.72c-1.67-1.6-3.66-1.82-5.76-1.1
		c-1.82,0.62-2.86,1.97-2.9,3.89c-0.07,3.5-0.07,7,0,10.49c0.04,1.71,0.94,2.98,2.54,3.69c1.37,0.61,2.78,0.57,4.19,0.2
		c1.97-0.51,3.21-2.44,3.1-4.19C752.87,295.89,752.94,294.23,752.94,292.57z M750.11,296.77c0,0.26,0.01,0.53-0.04,0.78
		c-0.29,1.57-2.18,2.23-3.42,1.21c-0.45-0.37-0.57-0.85-0.57-1.4c0.02-1.61,0.01-3.23,0.01-4.85c0-1.58-0.02-3.16,0-4.74
		c0.01-1.15,0.56-1.75,1.67-1.86c1.24-0.11,2.04,0.4,2.27,1.51c0.06,0.28,0.08,0.59,0.08,0.89
		C750.11,291.13,750.11,293.95,750.11,296.77z"/>
	<path class="st8" d="M497.6,292.6c0-1.76-0.01-3.53,0-5.3c0.01-1.08-0.36-1.99-1.13-2.73c-1.63-1.58-3.58-1.81-5.65-1.17
		c-1.84,0.56-3,2-3.03,3.91c-0.06,3.5-0.07,7,0,10.5c0.04,1.75,0.99,3.01,2.62,3.75c0.96,0.44,1.97,0.42,2.99,0.37
		c2.71-0.13,4.35-2.35,4.22-4.37C497.52,295.91,497.6,294.25,497.6,292.6z M494.76,297.25c-0.12,1.6-1.52,2.43-3,1.79
		c-0.68-0.3-1.04-0.81-1.03-1.59c0.02-1.66,0.01-3.31,0.01-4.97c0-1.54-0.01-3.08,0-4.63c0.01-1.23,0.56-1.85,1.7-1.95
		c1.27-0.11,2.09,0.47,2.28,1.64c0.05,0.29,0.04,0.6,0.04,0.9c0.01,2.75,0.01,5.49,0.01,8.24
		C494.77,296.87,494.78,297.07,494.76,297.25z"/>
	<path class="st8" d="M427.45,289.46c0-0.78-0.05-1.58-0.15-2.35c-0.3-2.43-1.8-3.88-4.25-4c-1.95-0.1-3.69,0.44-5.02,2.12
		c0.56,0.63,1.08,1.22,1.59,1.8c1.72-1.38,2.72-1.66,3.81-1.04c1.04,0.58,1.18,1.56,1.12,2.62c-1.63,1.14-3.22,2.16-4.7,3.3
		c-2.17,1.67-2.93,3.93-2.52,6.6c0.28,1.81,1.44,3.15,3.01,3.38c1.32,0.2,2.64,0.13,3.84-0.56c0.25-0.14,0.51-0.26,0.75-0.4
		c0.74,0.91,1.16,1,2.54,0.57v-1.21C427.46,296.68,427.47,293.07,427.45,289.46z M424.56,297.82c0,0.19-0.01,0.41-0.11,0.54
		c-0.67,0.76-1.53,1.08-2.53,0.96c-0.83-0.1-1.35-0.62-1.55-1.43c-0.35-1.4-0.08-2.7,0.83-3.82c0.86-1.06,1.97-1.82,3.37-2.53
		C424.56,293.75,424.57,295.79,424.56,297.82z"/>
	<path class="st8" d="M539.53,287.6c-0.04-2.23-1.34-3.85-3.29-4.33c-1.89-0.46-3.66-0.12-5.23,1.05c-0.31,0.23-0.54,0.57-0.84,0.9
		c0.59,0.67,1.09,1.24,1.63,1.85c1.08-1.17,2.26-1.75,3.71-1.14c0.91,0.38,1.24,1.38,1.02,2.86c-0.33,0.19-0.68,0.41-1.03,0.63
		c-1.53,0.95-3.06,1.91-4.33,3.23c-1.9,1.97-2.23,4.27-1.46,6.79c0.41,1.33,1.36,2.19,2.72,2.43c1.27,0.23,2.55,0.15,3.74-0.48
		c0.28-0.15,0.58-0.29,0.86-0.43c0.72,0.88,0.93,0.93,2.4,0.63c0.03-0.07,0.08-0.13,0.08-0.2
		C539.53,296.78,539.59,292.19,539.53,287.6z M536.64,297.92c-0.01,0.2-0.07,0.45-0.2,0.6c-0.55,0.66-1.95,1-2.8,0.7
		c-0.8-0.28-1.17-0.95-1.25-2.05c-0.11-1.63,0.51-2.93,1.76-3.92c0.72-0.58,1.5-1.09,2.25-1.64c0.08,0.05,0.17,0.1,0.26,0.14
		C536.65,293.8,536.65,295.86,536.64,297.92z"/>
	<path class="st8" d="M594.54,295.57c-0.83,0.21-1.65,0.42-2.54,0.64c0,0.44,0.03,0.82,0,1.19c-0.08,1.12-0.74,1.79-1.85,1.9
		c-0.93,0.1-1.8-0.39-2.01-1.25c-0.34-1.38-0.26-2.04,0.63-2.55c1.23-0.71,2.37-1.6,3.49-2.47c1.82-1.42,2.67-3.27,2.51-5.61
		c-0.14-2.15-1.34-3.68-3.44-4.18c-1.13-0.27-2.25-0.22-3.33,0.16c-1.72,0.6-2.83,2.04-2.85,3.8c-0.02,3.57-0.01,7.15,0,10.72
		c0,1.02,0.41,1.89,1.1,2.64c1.03,1.11,2.32,1.42,3.78,1.4C593.5,301.91,595.64,298.95,594.54,295.57z M588.03,287.37
		c0.05-1.05,0.83-1.66,1.79-1.68c0.98-0.04,1.69,0.53,1.96,1.52c0.34,1.33,0.04,2.54-0.78,3.6c-0.75,0.95-1.7,1.67-2.98,2.35
		C588.01,291.11,587.95,289.23,588.03,287.37z"/>
	<path class="st8" d="M356.4,295.56c-0.83,0.21-1.66,0.41-2.56,0.64c0,0.49,0.02,0.83-0.01,1.16c-0.07,1.15-0.58,1.7-1.71,1.9
		c-0.98,0.16-1.83-0.3-2.16-1.18c-0.42-1.17-0.17-1.99,0.72-2.6c1.18-0.79,2.38-1.59,3.47-2.49c1.58-1.3,2.5-2.94,2.45-5.08
		c-0.07-2.92-1.62-4.66-4.52-4.81c-3.07-0.16-5.24,1.8-5.13,4.75c0.11,3.19,0.02,6.39,0.04,9.59c0,0.56,0.05,1.14,0.23,1.66
		c0.94,2.73,4.68,3.83,7.3,2.19C356.3,300.15,357.03,298,356.4,295.56z M349.85,287.46c0.04-1.12,0.8-1.75,1.82-1.78
		c1-0.03,1.67,0.57,1.95,1.67c0.32,1.26-0.02,2.39-0.76,3.38c-0.74,1.01-1.75,1.73-3.04,2.44
		C349.83,291.13,349.76,289.29,349.85,287.46z"/>
	<path class="st8" d="M569.22,288.38c0-0.45-0.01-0.9-0.09-1.34c-0.26-1.47-0.87-2.71-2.27-3.43c-1.94-0.99-4.85-0.56-6.43,0.93
		c-0.21,0.2-0.37,0.44-0.57,0.7c0.54,0.62,1.03,1.18,1.45,1.67c0.85-0.45,1.51-0.91,2.23-1.14c1.11-0.34,2.2,0.24,2.61,1.23
		c0.49,1.23,0.33,1.59-0.94,2.42c-1.28,0.85-2.59,1.67-3.77,2.65c-2.2,1.83-2.88,4.23-2.18,7c0.37,1.45,1.3,2.49,2.8,2.79
		c1.35,0.26,2.7,0.14,3.94-0.55c0.26-0.14,0.52-0.26,0.81-0.41c0.52,1.26,1.47,0.74,2.36,0.75c0.02-0.33,0.05-0.59,0.05-0.85
		C569.23,296.66,569.23,292.53,569.22,288.38z M565.63,298.86c-0.51,0.22-1.06,0.41-1.6,0.46c-0.92,0.06-1.57-0.47-1.85-1.33
		c-0.36-1.06-0.22-2.11,0.26-3.05c0.81-1.6,2.25-2.51,3.96-3.43v1.39c0,1.53-0.04,3.08,0.01,4.61
		C566.43,298.17,566.2,298.63,565.63,298.86z"/>
	<path class="st8" d="M713.61,287.54c-0.01-1.6-0.61-2.94-2.03-3.79c-2.21-1.34-5.6-0.63-7.22,1.52c0.5,0.57,1.01,1.15,1.57,1.78
		c1.14-1.1,2.34-1.87,3.86-1.03c1.02,0.57,1.1,1.61,1.05,2.56c-1.62,1.13-3.19,2.15-4.69,3.29c-2.14,1.62-2.9,3.85-2.56,6.48
		c0.3,2.36,2.01,3.65,4.01,3.62c1.33-0.02,2.48-0.45,3.59-1.05c0.74,0.92,1.06,0.99,2.42,0.58v-3.58
		C713.62,294.47,713.64,291,713.61,287.54z M709.97,298.97c-0.34,0.15-0.71,0.29-1.07,0.34c-1.18,0.19-2.09-0.43-2.3-1.6
		c-0.2-1.14-0.1-2.26,0.58-3.23c0.9-1.28,2.14-2.14,3.61-2.91c0.04,0.36,0.07,0.61,0.07,0.85c0,1.69-0.04,3.38,0.02,5.06
		C710.92,298.24,710.6,298.69,709.97,298.97z"/>
	<path class="st8" d="M636.49,295.58c0.8,0.19,1.63,0.39,2.57,0.61c0,0.46-0.01,0.86,0,1.27c0.04,0.95,0.43,1.45,1.33,1.71
		c0.25,0.07,0.51,0.16,0.77,0.16c0.8,0,1.63-0.06,2.09-0.83c0.47-0.8,0.48-1.7-0.06-2.45c-0.54-0.76-1.21-1.44-1.89-2.08
		c-0.84-0.8-1.78-1.5-2.64-2.28c-1.2-1.09-2.08-2.37-2.2-4.05c-0.16-2.06,0.95-3.67,2.93-4.25c1.17-0.34,2.37-0.4,3.57-0.15
		c2.14,0.44,3.31,1.87,3.32,4.06c0,0.33-0.04,0.66-0.06,1.04c-0.88,0-1.69,0-2.61,0c-0.03-0.32-0.05-0.64-0.08-0.96
		c-0.11-0.96-0.65-1.47-1.62-1.53c-0.22-0.01-0.45,0-0.68,0c-0.68-0.02-1.31,0.13-1.63,0.78c-0.33,0.68-0.34,1.43,0.16,2.02
		c0.68,0.8,1.43,1.53,2.19,2.26c0.92,0.88,1.93,1.68,2.82,2.59c1.37,1.41,1.88,3.11,1.5,5.07c-0.31,1.63-1.21,2.73-2.83,3.17
		c-1.48,0.4-2.98,0.41-4.44-0.08c-1.69-0.57-2.67-1.97-2.7-3.76c-0.01-0.68,0.01-1.35,0.03-2.03
		C636.34,295.77,636.41,295.71,636.49,295.58z"/>
	<path class="st8" d="M362.2,295.54c1,0.24,1.8,0.43,2.7,0.65c0.02,0.47,0.03,0.91,0.06,1.34c0.05,0.88,0.45,1.4,1.28,1.65
		c1.17,0.36,2.39,0.09,2.9-0.63c0.55-0.77,0.46-2.08-0.42-3c-1.22-1.27-2.55-2.43-3.87-3.6c-0.85-0.76-1.6-1.59-2.06-2.64
		c-1.24-2.78,0.05-5.39,3.01-6.05c1.07-0.24,2.16-0.25,3.24,0.03c2.07,0.53,3.11,1.83,3.16,3.96c0.01,0.33-0.03,0.66-0.05,1.07
		c-0.89,0-1.73,0-2.65,0c-0.03-0.36-0.03-0.69-0.08-1.01c-0.13-0.92-0.65-1.4-1.57-1.47c-0.26-0.02-0.53-0.01-0.79,0
		c-1.5,0.05-2.24,1.23-1.52,2.57c0.33,0.61,0.83,1.16,1.34,1.64c1.17,1.11,2.43,2.12,3.6,3.24c1.56,1.49,2.09,3.33,1.66,5.44
		c-0.3,1.44-1.13,2.47-2.53,2.92c-1.57,0.51-3.19,0.52-4.76-0.02c-1.71-0.59-2.62-1.97-2.64-3.79
		C362.19,297.1,362.2,296.39,362.2,295.54z"/>
	<path class="st8" d="M481.98,295.5c-0.08,1.09-0.08,1.95-0.21,2.8c-0.36,2.18-2.02,3.57-4.22,3.66c-1.51,0.06-2.92-0.12-4.05-1.28
		c-0.81-0.83-1.24-1.79-1.25-2.93c-0.02-3.46-0.03-6.93,0-10.39c0.02-2.34,1.72-4,4.28-4.24c3.28-0.32,5.61,1.93,5.3,5.28
		c-0.42,0-0.86,0-1.3,0c-0.41,0-0.82,0-1.24,0c-0.09-0.38-0.17-0.66-0.21-0.95c-0.15-1.2-1.21-1.63-2.25-1.53
		c-1.03,0.1-1.67,0.8-1.68,1.9c-0.02,3.16-0.02,6.32,0,9.49c0.01,1.14,0.63,1.8,1.67,1.89c1.27,0.11,1.99-0.36,2.24-1.52
		c0.1-0.47,0.13-0.95,0.2-1.5C480.1,295.96,480.92,295.76,481.98,295.5z"/>
	<path class="st8" d="M443.22,288.32c-0.37,0.03-0.7,0.06-1.03,0.07c-0.52,0.01-1.04,0-1.58,0c-0.04-0.34-0.05-0.56-0.08-0.78
		c-0.16-1.19-0.84-1.75-2.09-1.71c-1.16,0.04-1.84,0.65-1.85,1.82c-0.03,3.24-0.03,6.47,0,9.71c0.01,1.16,0.7,1.74,1.9,1.76
		c1.24,0.02,1.95-0.59,2.03-1.76c0.09-1.27,0.09-1.28,1.33-1.57c0.43-0.1,0.87-0.18,1.48-0.31c-0.08,1.16-0.1,2.21-0.24,3.23
		c-0.11,0.8-0.61,1.43-1.2,2c-1.92,1.85-6.63,1.7-7.83-1.35c-0.27-0.68-0.44-1.45-0.45-2.19c-0.05-3.12-0.04-6.25-0.01-9.37
		c0.02-1.9,0.69-3.49,2.53-4.3c1.92-0.84,3.84-0.74,5.54,0.57C443.02,285.18,443.45,286.6,443.22,288.32z"/>
	
		<linearGradient id="SVGID_15_" gradientUnits="userSpaceOnUse" x1="1016.7255" y1="518.204" x2="1016.7255" y2="507.4501" gradientTransform="matrix(1 0 0 1 -344.05 -327.5381)">
		<stop  offset="0" style="stop-color:#054F8A"/>
		<stop  offset="0.3569" style="stop-color:#0780C1"/>
		<stop  offset="0.6271" style="stop-color:#0CA1D7"/>
		<stop  offset="1" style="stop-color:#39BFEF"/>
	</linearGradient>
	<path class="st15" d="M677.7,185.27c-0.06,1.84-0.53,3.49-2.2,4.56c-3.17,2.03-7.21,0.22-7.76-3.49c-0.18-1.24-0.12-2.47,0.39-3.65
		c0.59-1.37,1.59-2.26,3.05-2.6C674.64,179.28,677.78,181.24,677.7,185.27z"/>
	<path class="st8" d="M453.28,283.3c1.2,0,2.17,0,3.23,0c0,0.77,0,1.46,0,2.32c-0.97,0-2,0-3.14,0c-0.03,0.51-0.07,0.87-0.07,1.23
		c0,3.35-0.01,6.69,0,10.04c0,2.13,1.15,2.89,3.17,2.13c0.07-0.03,0.14-0.03,0.32-0.06c0.25,0.71,0.51,1.44,0.8,2.23
		c-0.29,0.17-0.52,0.36-0.78,0.46c-1.17,0.43-2.38,0.43-3.55,0.11c-1.52-0.42-2.37-1.55-2.7-3.04c-0.15-0.69-0.22-1.41-0.22-2.12
		c-0.02-3.2-0.01-6.39-0.01-9.59c0-0.4,0-0.81,0-1.27c-0.7-0.05-1.29-0.09-1.96-0.13c0-0.75,0-1.47,0-2.26
		c0.63-0.04,1.22-0.07,1.96-0.11c0-0.75-0.01-1.45,0-2.15c0.01-0.94,0.01-0.94,0.9-1.29c0.62-0.24,1.26-0.47,2.05-0.76
		C453.28,280.49,453.28,281.81,453.28,283.3z"/>
	<path class="st8" d="M603.86,301.66c-0.95,0-1.84,0-2.81,0c0-7.92,0-15.8,0-23.77c0.9-0.21,1.81-0.43,2.81-0.67
		C603.86,285.39,603.86,293.45,603.86,301.66z"/>
	<path class="st8" d="M337.64,277.9c0.92-0.21,1.82-0.42,2.82-0.66c0,8.16,0,16.23,0,24.39c-0.92,0-1.84,0-2.82,0
		C337.64,293.77,337.64,285.92,337.64,277.9z"/>
	<path class="st8" d="M298.24,278.24c0,7.85,0,15.58,0,23.4c-0.97,0-1.89,0-2.82,0c-0.24-0.78-0.29-22.14-0.04-23.4
		C296.29,278.24,297.21,278.24,298.24,278.24z"/>
	<path class="st8" d="M545.99,283.36c0.71,0,1.33,0,2.01,0c0.16,0.37,0.32,0.74,0.54,1.22c1.1-0.97,2.26-1.67,3.76-1.46
		c0.72,0.1,1.4,0.26,1.98,0.89c-0.26,0.74-0.53,1.51-0.81,2.31c-0.4-0.12-0.72-0.24-1.04-0.32c-0.97-0.24-1.84-0.09-2.65,0.53
		c-0.62,0.47-0.89,1.02-0.89,1.82c0.03,3.99,0.01,7.97,0.01,11.96c0,0.41,0,0.82,0,1.31c-1,0-1.91,0-2.9,0
		C545.99,295.58,545.99,289.54,545.99,283.36z"/>
	<path class="st8" d="M722.15,283.38c0.17,0.37,0.36,0.77,0.6,1.29c0.86-0.98,1.87-1.59,3.15-1.6c0.89-0.01,1.71,0.21,2.53,0.84
		c-0.25,0.76-0.51,1.56-0.78,2.4c-0.45-0.13-0.8-0.25-1.16-0.33c-0.93-0.22-1.79-0.05-2.55,0.55c-0.56,0.44-0.85,0.96-0.84,1.73
		c0.04,4.03,0.02,8.05,0.02,12.08c0,0.41,0,0.81,0,1.3c-1.02,0-1.93,0-2.91,0c0-6.09,0-12.13,0-18.26
		C720.84,283.38,721.46,283.38,722.15,283.38z"/>
	<path class="st8" d="M404.22,283.36c0.71,0,1.33,0,1.97,0c0.19,0.41,0.36,0.78,0.57,1.24c0.25-0.21,0.46-0.39,0.67-0.57
		c1.24-1.03,3.1-1.23,4.44-0.51c0.44,0.23,0.62,0.51,0.44,0.99c-0.22,0.59-0.43,1.18-0.65,1.82c-0.41-0.12-0.72-0.22-1.04-0.31
		c-0.93-0.25-1.78-0.09-2.57,0.46c-0.63,0.44-0.94,0.98-0.93,1.79c0.03,4.02,0.02,8.05,0.02,12.07c0,0.41,0,0.81,0,1.3
		c-1.01,0-1.92,0-2.9,0C404.22,295.57,404.22,289.53,404.22,283.36z"/>
	<path class="st8" d="M733.92,283.36c0.96,0,1.85,0,2.82,0c0,6.1,0,12.14,0,18.25c-0.91,0.21-1.83,0.11-2.82,0.06
		C733.92,295.57,733.92,289.53,733.92,283.36z"/>
	<path class="st8" d="M465.8,301.67c-0.96,0-1.85,0-2.82,0c0-6.09,0-12.13,0-18.27c0.92,0,1.83,0,2.82,0
		C465.8,289.44,465.8,295.49,465.8,301.67z"/>
	<path class="st8" d="M697.5,301.67c-0.97,0-1.86,0-2.82,0c0-6.08,0-12.12,0-18.23c0.91-0.26,1.83-0.12,2.82-0.08
		C697.5,289.45,697.5,295.49,697.5,301.67z"/>
	<g>
		<path class="st8" d="M86.43,149.49c-1.99-4.81-3.9-9.42-5.81-14.02c-11.1-0.79-22.11-1.58-33.19-2.37
			c-0.02,0.47-0.05,0.83-0.05,1.2c0,10.73,0,21.46-0.01,32.2c0,0.63,0.13,1.07,0.66,1.54c1.81,1.61,1.75,4.16,0.15,5.82
			c-0.23,0.24-0.51,0.45-0.8,0.7c0,1.07-0.03,2.16,0.02,3.25c0.02,0.39,0.18,0.8,0.36,1.16c1.08,2.19,2.18,4.38,3.27,6.56
			c0.16,0.32,0.3,0.66,0.5,1.09c-4.23,0-8.32,0-12.5,0c0.13-0.34,0.21-0.62,0.34-0.88c1.04-2.09,2.06-4.18,3.14-6.25
			c0.38-0.72,0.62-1.44,0.54-2.26c-0.03-0.3-0.02-0.6,0-0.9c0.06-0.96-0.11-1.72-0.91-2.48c-1.64-1.55-1.43-4.26,0.36-5.68
			c0.68-0.54,0.86-1.1,0.86-1.91c-0.02-10.81,0-21.62-0.03-32.42c0-0.85,0.29-1.39,0.87-1.93c2.78-2.59,5.53-5.22,8.29-7.84
			c3.55-3.37,7.1-6.73,10.65-10.1c2.54-2.41,5.07-4.83,7.6-7.24c3.63-3.45,7.26-6.89,10.89-10.34c2.51-2.39,5.01-4.78,7.52-7.16
			c3.66-3.48,7.32-6.95,10.97-10.42c2.46-2.33,4.91-4.67,7.36-7.01c1.55-1.48,3.11-2.95,4.66-4.44c0.29-0.28,0.56-0.43,0.98-0.44
			c2.71-0.06,5.42-0.15,8.13-0.21c5-0.12,10.01-0.21,15.01-0.32c2.78-0.06,5.57-0.14,8.35-0.21c5.19-0.14,10.38-0.3,15.57-0.44
			c3.42-0.09,6.85-0.16,10.27-0.24c3.69-0.08,7.37-0.16,11.06-0.24c2.63-0.06,5.27-0.14,7.9-0.21c5.42-0.15,10.83-0.29,16.25-0.43
			c0.7-0.02,1.4,0,2.16,0.12c-7.97,9.44-16.07,18.7-24.18,28.1c1.6,3.87,3.22,7.77,4.9,11.85c-19.88-1.88-38.82,1.03-56.92,8.99
			C113.51,121.63,98.52,133.57,86.43,149.49z"/>
		
			<linearGradient id="SVGID_16_" gradientUnits="userSpaceOnUse" x1="482.9179" y1="642.9426" x2="482.9179" y2="445.8447" gradientTransform="matrix(1 0 0 1 -344.05 -327.5381)">
			<stop  offset="0" style="stop-color:#054F8A"/>
			<stop  offset="0.3569" style="stop-color:#0780C1"/>
			<stop  offset="0.6271" style="stop-color:#0CA1D7"/>
			<stop  offset="1" style="stop-color:#39BFEF"/>
		</linearGradient>
		<path class="st16" d="M199.64,121.08c-26.94-1.71-50.99,5.74-71.69,23.09c-17.97,15.06-29.2,34.32-33.45,57.39
			c-4.68,25.37-0.12,49.18,13.68,70.99c13.79,21.8,33.47,35.81,58.26,42.78c-3.08,0.72-20.15-3.65-28.47-7.25
			c-9.11-3.94-17.46-9.1-25.01-15.55c-7.58-6.47-14.06-13.9-19.4-22.31c-23.25-36.57-19.77-83.37,7.09-115.81
			C128.63,120.61,169.67,113.46,199.64,121.08z"/>
		<path class="st8" d="M151.49,151.82c-0.41,0.38-0.84,0.75-1.24,1.14c-5.54,5.26-10.46,11.01-14.41,17.57
			c-3.5,5.8-6.19,11.94-7.96,18.47c-1.23,4.51-2.08,9.09-2.29,13.76c-0.13,3.04-0.27,6.09-0.12,9.13
			c0.35,7.13,1.71,14.09,3.98,20.86c3.63,10.84,9.2,20.57,16.65,29.23c4.16,4.84,8.78,9.2,13.92,12.99
			c9.27,6.85,19.49,11.59,30.83,13.83c5.03,1,10.12,1.47,15.24,1.34c7.14-0.18,14.12-1.37,20.93-3.54c5-1.59,9.77-3.68,14.42-6.1
			c0.26-0.14,0.53-0.25,0.93-0.43c-16.14,14.52-44.85,24.42-74.66,15c-30.88-9.76-51.58-36.8-54.74-66.81
			c-1.78-16.92,1.51-32.85,9.88-47.68c6.88-12.18,16.46-21.75,28.42-28.94C151.35,151.7,151.42,151.76,151.49,151.82z"/>
		
			<linearGradient id="SVGID_17_" gradientUnits="userSpaceOnUse" x1="553.2609" y1="531.577" x2="553.2609" y2="503.2162" gradientTransform="matrix(1 0 0 1 -344.05 -327.5381)">
			<stop  offset="0" style="stop-color:#054F8A"/>
			<stop  offset="0.3569" style="stop-color:#0780C1"/>
			<stop  offset="0.6271" style="stop-color:#0CA1D7"/>
			<stop  offset="1" style="stop-color:#39BFEF"/>
		</linearGradient>
		<path class="st17" d="M193.01,175.68c10.87,0,21.62,0,32.35,0c1.13,4.41,2.76,19.98,2.65,28.31c-4.15,0.09-8.31,0.03-12.46,0.04
			c-4.18,0.01-8.36,0-12.53,0c-4.17,0-8.33,0-12.61,0C190.59,194.47,191.41,185.11,193.01,175.68z"/>
		
			<linearGradient id="SVGID_18_" gradientUnits="userSpaceOnUse" x1="553.2893" y1="569.4763" x2="553.2893" y2="541.3143" gradientTransform="matrix(1 0 0 1 -344.05 -327.5381)">
			<stop  offset="0" style="stop-color:#054F8A"/>
			<stop  offset="0.3569" style="stop-color:#0780C1"/>
			<stop  offset="0.6271" style="stop-color:#0CA1D7"/>
			<stop  offset="1" style="stop-color:#39BFEF"/>
		</linearGradient>
		<path class="st18" d="M228.05,213.78c-0.15,9.52-1,18.85-2.58,28.16c-10.84,0-21.6,0-32.35,0c-1.14-3.41-3.08-24.1-2.63-28.16
			C202.96,213.78,215.44,213.78,228.05,213.78z"/>
		
			<linearGradient id="SVGID_19_" gradientUnits="userSpaceOnUse" x1="553.3781" y1="493.5883" x2="553.3781" y2="469.7326" gradientTransform="matrix(1 0 0 1 -344.05 -327.5381)">
			<stop  offset="0" style="stop-color:#054F8A"/>
			<stop  offset="0.3569" style="stop-color:#0780C1"/>
			<stop  offset="0.6271" style="stop-color:#0CA1D7"/>
			<stop  offset="1" style="stop-color:#39BFEF"/>
		</linearGradient>
		<path class="st19" d="M223.48,166.04c-9.54,0.02-18.89-0.01-28.31-0.06c0.03-0.35,0.02-0.57,0.07-0.78
			c1.41-5.11,3.07-10.14,5.55-14.85c1.16-2.2,2.46-4.3,4.25-6.07c2.84-2.82,5.71-2.79,8.52,0.11c1.45,1.49,2.59,3.21,3.61,5.02
			c2.11,3.75,3.62,7.75,4.9,11.84C222.54,162.75,222.96,164.27,223.48,166.04z"/>
		
			<linearGradient id="SVGID_20_" gradientUnits="userSpaceOnUse" x1="553.3422" y1="603.0129" x2="553.3422" y2="579.2693" gradientTransform="matrix(1 0 0 1 -344.05 -327.5381)">
			<stop  offset="0" style="stop-color:#054F8A"/>
			<stop  offset="0.3569" style="stop-color:#0780C1"/>
			<stop  offset="0.6271" style="stop-color:#0CA1D7"/>
			<stop  offset="1" style="stop-color:#39BFEF"/>
		</linearGradient>
		<path class="st20" d="M223.41,251.73c-1.19,4.62-2.63,9-4.55,13.21c-0.98,2.16-2.08,4.26-3.52,6.15
			c-0.75,0.98-1.57,1.93-2.47,2.77c-2.19,2.06-4.67,2.13-7.01,0.25c-1.94-1.56-3.29-3.6-4.49-5.73c-2.57-4.58-4.32-9.49-5.74-14.53
			c-0.16-0.58-0.31-1.16-0.45-1.74c-0.02-0.1,0.02-0.21,0.04-0.38C204.58,251.73,213.93,251.73,223.41,251.73z"/>
		
			<linearGradient id="SVGID_21_" gradientUnits="userSpaceOnUse" x1="587.5203" y1="531.4971" x2="587.5203" y2="503.2022" gradientTransform="matrix(1 0 0 1 -344.05 -327.5381)">
			<stop  offset="0" style="stop-color:#054F8A"/>
			<stop  offset="0.3569" style="stop-color:#0780C1"/>
			<stop  offset="0.6271" style="stop-color:#0CA1D7"/>
			<stop  offset="1" style="stop-color:#39BFEF"/>
		</linearGradient>
		<path class="st21" d="M235.09,175.66c3.79,0,7.42,0,11.13,0c3.37,9.12,5.15,18.54,5.63,28.29c-4.71,0-9.35,0-14.11,0
			C237.58,194.44,236.65,185.06,235.09,175.66z"/>
		
			<linearGradient id="SVGID_22_" gradientUnits="userSpaceOnUse" x1="519.0127" y1="531.4847" x2="519.0127" y2="503.2409" gradientTransform="matrix(1 0 0 1 -344.05 -327.5381)">
			<stop  offset="0" style="stop-color:#054F8A"/>
			<stop  offset="0.3569" style="stop-color:#0780C1"/>
			<stop  offset="0.6271" style="stop-color:#0CA1D7"/>
			<stop  offset="1" style="stop-color:#39BFEF"/>
		</linearGradient>
		<path class="st22" d="M172.24,175.7c3.69,0,7.28,0,11.04,0c-0.43,3.21-0.88,6.32-1.23,9.43c-0.36,3.09-0.68,6.19-0.91,9.3
			c-0.23,3.14-0.33,6.29-0.5,9.52c-4.62,0-9.22,0-13.99,0C167.09,194.23,168.89,184.82,172.24,175.7z"/>
		
			<linearGradient id="SVGID_23_" gradientUnits="userSpaceOnUse" x1="587.5792" y1="569.4713" x2="587.5792" y2="541.233" gradientTransform="matrix(1 0 0 1 -344.05 -327.5381)">
			<stop  offset="0" style="stop-color:#054F8A"/>
			<stop  offset="0.3569" style="stop-color:#0780C1"/>
			<stop  offset="0.6271" style="stop-color:#0CA1D7"/>
			<stop  offset="1" style="stop-color:#39BFEF"/>
		</linearGradient>
		<path class="st23" d="M251.84,213.87c-0.47,9.63-2.25,19-5.59,28.06c-3.72,0-7.36,0-11.02,0c0.58-4.7,1.25-9.34,1.69-14
			c0.44-4.67,0.65-9.36,0.96-14.06C238.67,213.65,250.82,213.62,251.84,213.87z"/>
		
			<linearGradient id="SVGID_24_" gradientUnits="userSpaceOnUse" x1="519.0472" y1="569.5757" x2="519.0472" y2="541.3225" gradientTransform="matrix(1 0 0 1 -344.05 -327.5381)">
			<stop  offset="0" style="stop-color:#054F8A"/>
			<stop  offset="0.3569" style="stop-color:#0780C1"/>
			<stop  offset="0.6271" style="stop-color:#0CA1D7"/>
			<stop  offset="1" style="stop-color:#39BFEF"/>
		</linearGradient>
		<path class="st24" d="M180.69,213.78c0.23,9.49,1.1,18.79,2.66,28.02c-0.87,0.24-8.42,0.33-11.13,0.12
			c-3.33-9.03-5.11-18.41-5.58-28.14C171.36,213.78,175.97,213.78,180.69,213.78z"/>
		
			<linearGradient id="SVGID_25_" gradientUnits="userSpaceOnUse" x1="610.1055" y1="531.5016" x2="610.1055" y2="503.1331" gradientTransform="matrix(1 0 0 1 -344.05 -327.5381)">
			<stop  offset="0" style="stop-color:#054F8A"/>
			<stop  offset="0.3569" style="stop-color:#0780C1"/>
			<stop  offset="0.6271" style="stop-color:#0CA1D7"/>
			<stop  offset="1" style="stop-color:#39BFEF"/>
		</linearGradient>
		<path class="st25" d="M275.59,203.96c-4.69,0-9.29,0-14.03,0c-0.46-9.62-2.05-19.01-5.06-28.25c0.4-0.05,0.64-0.1,0.88-0.1
			c2.86-0.01,5.72,0.01,8.58-0.01c0.68-0.01,1.08,0.21,1.42,0.82c3.81,6.9,6.38,14.23,7.59,22.03c0.24,1.56,0.42,3.12,0.61,4.68
			C275.62,203.38,275.59,203.64,275.59,203.96z"/>
		
			<linearGradient id="SVGID_26_" gradientUnits="userSpaceOnUse" x1="610.1094" y1="569.4691" x2="610.1094" y2="541.3265" gradientTransform="matrix(1 0 0 1 -344.05 -327.5381)">
			<stop  offset="0" style="stop-color:#054F8A"/>
			<stop  offset="0.3569" style="stop-color:#0780C1"/>
			<stop  offset="0.6271" style="stop-color:#0CA1D7"/>
			<stop  offset="1" style="stop-color:#39BFEF"/>
		</linearGradient>
		<path class="st26" d="M261.55,213.79c4.76,0,9.37,0,14.05,0c-0.74,10.11-3.67,19.44-8.6,28.14c-3.48,0-6.89,0-10.48,0
			C259.49,232.75,261.1,223.42,261.55,213.79z"/>
		
			<linearGradient id="SVGID_27_" gradientUnits="userSpaceOnUse" x1="496.5099" y1="531.5865" x2="496.5099" y2="503.2317" gradientTransform="matrix(1 0 0 1 -344.05 -327.5381)">
			<stop  offset="0" style="stop-color:#054F8A"/>
			<stop  offset="0.3569" style="stop-color:#0780C1"/>
			<stop  offset="0.6271" style="stop-color:#0CA1D7"/>
			<stop  offset="1" style="stop-color:#39BFEF"/>
		</linearGradient>
		<path class="st27" d="M161.93,175.7c-2.95,9.3-4.65,18.61-5,28.13c-0.85,0.25-12.5,0.31-13.9,0.08c0-0.65-0.06-1.32,0.01-1.98
			c0.73-6.8,2.42-13.36,5.17-19.63c0.89-2.03,1.96-3.97,2.94-5.96c0.2-0.4,0.45-0.65,0.95-0.64
			C155.28,175.71,158.48,175.7,161.93,175.7z"/>
		
			<linearGradient id="SVGID_28_" gradientUnits="userSpaceOnUse" x1="496.4985" y1="569.5417" x2="496.4985" y2="541.3119" gradientTransform="matrix(1 0 0 1 -344.05 -327.5381)">
			<stop  offset="0" style="stop-color:#054F8A"/>
			<stop  offset="0.3569" style="stop-color:#0780C1"/>
			<stop  offset="0.6271" style="stop-color:#0CA1D7"/>
			<stop  offset="1" style="stop-color:#39BFEF"/>
		</linearGradient>
		<path class="st28" d="M142.97,213.77c4.65,0,9.22,0,13.92,0c0.44,9.61,2.05,18.97,5.05,28.16c-0.44,0.02-0.77,0.05-1.09,0.05
			c-2.78,0-5.57-0.02-8.35,0.02c-0.68,0.01-1.08-0.17-1.42-0.79c-3.42-6.2-5.85-12.76-7.16-19.71c-0.41-2.17-0.64-4.38-0.93-6.57
			C142.93,214.57,142.97,214.2,142.97,213.77z"/>
		
			<linearGradient id="SVGID_29_" gradientUnits="userSpaceOnUse" x1="578.9293" y1="493.4754" x2="578.9293" y2="476.7137" gradientTransform="matrix(1 0 0 1 -344.05 -327.5381)">
			<stop  offset="0" style="stop-color:#054F8A"/>
			<stop  offset="0.3569" style="stop-color:#0780C1"/>
			<stop  offset="0.6271" style="stop-color:#0CA1D7"/>
			<stop  offset="1" style="stop-color:#39BFEF"/>
		</linearGradient>
		<path class="st29" d="M241.82,165.94c-2.88,0-5.57,0-8.41,0c-1.43-5.65-3.12-11.3-5.46-16.76
			C233.83,153.66,238.18,159.37,241.82,165.94z"/>
		
			<linearGradient id="SVGID_30_" gradientUnits="userSpaceOnUse" x1="527.6997" y1="596.0551" x2="527.6997" y2="579.1856" gradientTransform="matrix(1 0 0 1 -344.05 -327.5381)">
			<stop  offset="0" style="stop-color:#054F8A"/>
			<stop  offset="0.3569" style="stop-color:#0780C1"/>
			<stop  offset="0.6271" style="stop-color:#0CA1D7"/>
			<stop  offset="1" style="stop-color:#39BFEF"/>
		</linearGradient>
		<path class="st30" d="M185.09,251.78c1.42,5.67,3.13,11.3,5.47,16.74c-5.9-4.48-10.27-10.19-13.81-16.64
			C177.6,251.63,183.49,251.56,185.09,251.78z"/>
		
			<linearGradient id="SVGID_31_" gradientUnits="userSpaceOnUse" x1="578.8175" y1="595.9585" x2="578.8175" y2="579.2542" gradientTransform="matrix(1 0 0 1 -344.05 -327.5381)">
			<stop  offset="0" style="stop-color:#054F8A"/>
			<stop  offset="0.3569" style="stop-color:#0780C1"/>
			<stop  offset="0.6271" style="stop-color:#0CA1D7"/>
			<stop  offset="1" style="stop-color:#39BFEF"/>
		</linearGradient>
		<path class="st31" d="M233.37,251.72c2.81,0,5.51,0,8.22,0c-0.64,3.33-9.36,14.12-13.5,16.7c-0.03-0.01-0.06-0.02-0.08-0.04
			c-0.03-0.03-0.06-0.07-0.06-0.09C230.22,262.92,232.03,257.4,233.37,251.72z"/>
		
			<linearGradient id="SVGID_32_" gradientUnits="userSpaceOnUse" x1="527.7486" y1="493.4311" x2="527.7486" y2="476.7522" gradientTransform="matrix(1 0 0 1 -344.05 -327.5381)">
			<stop  offset="0" style="stop-color:#054F8A"/>
			<stop  offset="0.3569" style="stop-color:#0780C1"/>
			<stop  offset="0.6271" style="stop-color:#0CA1D7"/>
			<stop  offset="1" style="stop-color:#39BFEF"/>
		</linearGradient>
		<path class="st32" d="M185.01,165.89c-2.7,0-5.39,0-8.1,0c0.79-3.54,9.65-14.42,13.58-16.68c-1.01,2.76-2.09,5.47-2.99,8.23
			C186.59,160.18,185.86,162.98,185.01,165.89z"/>
		
			<linearGradient id="SVGID_33_" gradientUnits="userSpaceOnUse" x1="596.7747" y1="592.0883" x2="596.7747" y2="579.1588" gradientTransform="matrix(1 0 0 1 -344.05 -327.5381)">
			<stop  offset="0" style="stop-color:#054F8A"/>
			<stop  offset="0.3569" style="stop-color:#0780C1"/>
			<stop  offset="0.6271" style="stop-color:#0CA1D7"/>
			<stop  offset="1" style="stop-color:#39BFEF"/>
		</linearGradient>
		<path class="st33" d="M259.98,251.93c-4.22,4.92-9,9.17-14.52,12.62c1.32-2.09,2.69-4.15,3.94-6.28c1.25-2.14,2.36-4.35,3.53-6.52
			C255.03,251.52,259.26,251.61,259.98,251.93z"/>
		
			<linearGradient id="SVGID_34_" gradientUnits="userSpaceOnUse" x1="509.7475" y1="592.2526" x2="509.7475" y2="579.2003" gradientTransform="matrix(1 0 0 1 -344.05 -327.5381)">
			<stop  offset="0" style="stop-color:#054F8A"/>
			<stop  offset="0.3569" style="stop-color:#0780C1"/>
			<stop  offset="0.6271" style="stop-color:#0CA1D7"/>
			<stop  offset="1" style="stop-color:#39BFEF"/>
		</linearGradient>
		<path class="st34" d="M158.34,251.77c0.36-0.05,0.53-0.1,0.7-0.1c1.92-0.01,3.84,0,5.76-0.01c0.49,0,0.83,0.1,1.07,0.6
			c1.99,4.19,4.3,8.18,7,11.95c0.05,0.08,0.07,0.18,0.18,0.5C167.43,261.08,162.69,256.79,158.34,251.77z"/>
		
			<linearGradient id="SVGID_35_" gradientUnits="userSpaceOnUse" x1="596.7786" y1="493.5225" x2="596.7786" y2="480.6981" gradientTransform="matrix(1 0 0 1 -344.05 -327.5381)">
			<stop  offset="0" style="stop-color:#054F8A"/>
			<stop  offset="0.3569" style="stop-color:#0780C1"/>
			<stop  offset="0.6271" style="stop-color:#0CA1D7"/>
			<stop  offset="1" style="stop-color:#39BFEF"/>
		</linearGradient>
		<path class="st35" d="M245.45,153.16c5.52,3.4,10.28,7.64,14.57,12.61c-0.28,0.07-0.47,0.17-0.66,0.17
			c-1.92,0.02-3.83,0.02-5.75,0.04c-0.51,0.01-0.81-0.14-1.04-0.64c-1.94-4.16-4.26-8.1-6.92-11.84
			C245.56,153.4,245.51,153.27,245.45,153.16z"/>
		
			<linearGradient id="SVGID_36_" gradientUnits="userSpaceOnUse" x1="509.7321" y1="493.489" x2="509.7321" y2="480.5735" gradientTransform="matrix(1 0 0 1 -344.05 -327.5381)">
			<stop  offset="0" style="stop-color:#054F8A"/>
			<stop  offset="0.3569" style="stop-color:#0780C1"/>
			<stop  offset="0.6271" style="stop-color:#0CA1D7"/>
			<stop  offset="1" style="stop-color:#39BFEF"/>
		</linearGradient>
		<path class="st36" d="M172.95,153.04c-1.7,2.8-3.31,5.38-4.84,8.01c-0.76,1.29-1.42,2.65-2.05,4.01c-0.29,0.62-0.62,0.92-1.35,0.9
			c-1.77-0.05-3.54-0.02-5.3-0.02c-0.25,0-0.5-0.04-0.99-0.08C162.69,160.81,167.43,156.63,172.95,153.04z"/>
	</g>
	<path class="st37" d="M425.9,277.21c-0.34,0.51-0.55,0.85-0.78,1.18c-0.72,1.01-1.47,2-2.17,3.02c-0.33,0.49-0.71,0.72-1.31,0.66
		c-0.52-0.05-1.04-0.01-1.6-0.01c-0.01-0.17-0.06-0.3-0.02-0.37c0.8-1.36,1.59-2.72,2.42-4.07c0.12-0.19,0.39-0.39,0.6-0.4
		C423.93,277.18,424.82,277.21,425.9,277.21z"/>
	<path class="st37" d="M355.06,277.2c-0.42,0.61-0.7,1.03-1,1.44c-0.68,0.94-1.39,1.86-2.04,2.82c-0.31,0.47-0.67,0.64-1.21,0.61
		c-0.55-0.04-1.11-0.01-1.79-0.01c0.16-0.36,0.23-0.59,0.36-0.8c0.66-1.13,1.35-2.24,2-3.38c0.27-0.47,0.58-0.72,1.15-0.69
		C353.3,277.23,354.08,277.2,355.06,277.2z"/>
	<path class="st37" d="M466.1,279.28c-0.03,1.06-0.74,1.7-1.84,1.65c-1.01-0.05-1.61-0.73-1.58-1.8c0.02-1.06,0.63-1.64,1.72-1.62
		C465.51,277.52,466.13,278.17,466.1,279.28z"/>
	<path class="st37" d="M735.32,277.51c1.06,0.02,1.77,0.76,1.72,1.78c-0.04,1.02-0.79,1.67-1.87,1.64
		c-0.98-0.03-1.67-0.74-1.68-1.74C733.48,278.2,734.26,277.48,735.32,277.51z"/>
	<path class="st37" d="M697.81,279.23c-0.01,1.1-0.67,1.73-1.77,1.7c-0.99-0.03-1.66-0.74-1.65-1.75c0.01-1.02,0.65-1.66,1.7-1.67
		C697.22,277.49,697.81,278.09,697.81,279.23z"/>
</g>
</svg>
